<?xml version="1.0" standalone="no"?>
<!DOCTYPE svg PUBLIC "-//W3C//DTD SVG 20010904//EN"
 "http://www.w3.org/TR/2001/REC-SVG-20010904/DTD/svg10.dtd">
<svg version="1.0" xmlns="http://www.w3.org/2000/svg"
 width="600.000000pt" height="600.000000pt" viewBox="0 0 600.000000 600.000000"
 preserveAspectRatio="xMidYMid meet">
<metadata>
Created by potrace 1.11, written by Peter Selinger 2001-2013
</metadata>
<g transform="translate(0.000000,600.000000) scale(0.100000,-0.100000)"
fill="#000000" stroke="none">
<path d="M2254 4261 c-2 -2 -4 -559 -4 -1238 l0 -1233 830 0 c457 0 830 3 831
8 1 11 1 164 0 189 l-1 22 -662 0 c-365 0 -683 0 -708 0 l-45 1 0 470 0 470
80 0 c44 1 315 1 602 1 394 0 522 3 525 12 3 7 4 53 3 102 l-1 90 -600 0
c-329 0 -601 3 -604 7 -3 4 -5 204 -5 445 l0 438 665 2 c365 1 673 4 682 6 10
3 18 1 18 -5 0 -5 5 -6 10 -3 11 7 14 106 7 200 -2 20 -9 20 -810 20 -445 0
-811 -2 -813 -4z"/>
</g>
</svg>
